
EXVID

Filled the Archives

With:

E240

SP              (C) 2009

Razend.2011.DVDRip.XviD-EXViD

EXViD aims to iNTERNAL those releases which have been lost in the archives
EXViD aims to PRE non-internal releases which have poor sources and are likely skipped by others
 
http://www.imdb.com/title/tt1980219
Subtitles: NL, EN
Date: 2012.02

Director: Dave Schram

Genres: Drama

Plot
Sven (15) wants to be a director and shoots movies frequently. Especially of his friends who are
into free running. He asks his friend Roosmarijn to help him make his very first feature film
However, she may never know that he reguarly gets a beating from his dad. Thus far he is able
to hide the bruises for everyone until he's so beaten up that he hides himself at grandma's place
Because of that he misses his birthday. Roosmarijn thinks that Sven doesn't like her anymore and
also his friends are getting angry at him. One day he decides to deal with his dad once and for
all until he finds out why his dad beats him

Cast
Abbey Hoes  ...  Roosmarijn
Ko Zandvliet  ...  Sven
Mingus Dagelet  ...  Bart
Juliet Daalder  ...  Halima
Lennart Timmerman  ...  Lennart
Hassan Slaby  ...  Hakim
Tim Holwerda  ...  Arnout
Roos Dickmann  ...  Astrid
Josephine Houtman  ...  Susan
Bowy Goudkamp  ...  Lotte
Tahira Kik  ...  Mariska
Carlijn Kiewiet  ...  Stephanie
Nick Golterman  ...  Nick
Sander de Heer  ...  Wim
Ariane Schluter  ...  Anna

Stats
Format                          : AVI
Format/Info                      : Audio Video Interleave
File size                        : 700 MiB
Duration                        : 1h 30mn
Overall bit rate                : 1 077 Kbps
Writing application              : VirtualDubMod 1.5.10.2 (build 2540/release
Writing library                  : VirtualDubMod build 2540/release

Video
ID                              : 0
Format                          : MPEG-4 Visual
Format profile                  : Advanced SimpleL5
Format settings, BVOP            : Yes
Format settings, QPel            : No
Format settings, GMC            : No warppoints
Format settings, Matrix          : Default (H.263
Muxing mode                      : Packed bitstream
Codec ID                        : XVID
Codec ID/Hint                    : XviD
Duration                        : 1h 30mn
Bit rate                        : 946 Kbps
Width                            : 624 pixels
Height                          : 336 pixels
Display aspect ratio            : 1.857
Frame rate                      : 25.000 fps
Color space                      : YUV
Chroma subsampling              : 4:2:0
Bit depth                        : 8 bits
Scan type                        : Progressive
Bits/(PixelFrame)              : 0.180
Stream size                      : 615 MiB (88
Writing library                  : XviD 62

Audio
ID                              : 1
Format                          : MPEG Audio
Format version                  : Version 1
Format profile                  : Layer 3
Mode                            : Joint stereo
Mode extension                  : MS Stereo
Codec ID                        : 55
Codec ID/Hint                    : MP3
Duration                        : 1h 30mn
Bit rate mode                    : Variable
Bit rate                        : 119 Kbps
Nominal bit rate                : 128 Kbps
Channel(s)                      : 2 channels
Sampling rate                    : 48.0 KHz
Stream size                      : 77.2 MiB (11
Alignment                        : Aligned on interleaves
Interleave, duration            : 24 ms (0.60 video frame
Interleave, preload duration    : 523 ms
Writing library                  : LAME3.98r
Encoding settings                : -m j -V 4 -q 2 -lowpass 17 --abr 128

Release notes
enjoy

Looking for
75TB Archives
DUTCH/FLEMiSH Archives

Greets: CRBS EPiSODE FiCO FLS iLS KLASSiGER LiPSYNC MADE NODLABS RUNNER SPRiNTER

ASCII DONE BY XXNFO 2oo9
